<?xml version="1.0" encoding="UTF-8" standalone="no"?>
<svg
   xmlns:dc="http://purl.org/dc/elements/1.1/"
   xmlns:cc="http://creativecommons.org/ns#"
   xmlns:rdf="http://www.w3.org/1999/02/22-rdf-syntax-ns#"
   xmlns:svg="http://www.w3.org/2000/svg"
   xmlns="http://www.w3.org/2000/svg"
   xmlns:sodipodi="http://sodipodi.sourceforge.net/DTD/sodipodi-0.dtd"
   xmlns:inkscape="http://www.inkscape.org/namespaces/inkscape"
   x="0px"
   y="0px"
   width="64"
   height="64"
   viewBox="0 0 172 172"
   style=" fill:#000000;"
   version="1.1"
   id="svg823"
   sodipodi:docname="map.svg"
   inkscape:version="0.92.4 (5da689c313, 2019-01-14)">
  <metadata
     id="metadata829">
    <rdf:RDF>
      <cc:Work
         rdf:about="">
        <dc:format>image/svg+xml</dc:format>
        <dc:type
           rdf:resource="http://purl.org/dc/dcmitype/StillImage" />
        <dc:title></dc:title>
      </cc:Work>
    </rdf:RDF>
  </metadata>
  <defs
     id="defs827" />
  <sodipodi:namedview
     pagecolor="#ffffff"
     bordercolor="#666666"
     borderopacity="1"
     objecttolerance="10"
     gridtolerance="10"
     guidetolerance="10"
     inkscape:pageopacity="0"
     inkscape:pageshadow="2"
     inkscape:window-width="1920"
     inkscape:window-height="1001"
     id="namedview825"
     showgrid="false"
     inkscape:zoom="6.3125"
     inkscape:cx="46.055885"
     inkscape:cy="37.895675"
     inkscape:window-x="-9"
     inkscape:window-y="-9"
     inkscape:window-maximized="1"
     inkscape:current-layer="g821" />
  <g
     fill="none"
     fill-rule="nonzero"
     stroke="none"
     stroke-width="1"
     stroke-linecap="butt"
     stroke-linejoin="miter"
     stroke-miterlimit="10"
     stroke-dasharray=""
     stroke-dashoffset="0"
     font-family="none"
     font-weight="none"
     font-size="none"
     text-anchor="none"
     style="mix-blend-mode: normal"
     id="g821">
    <path
       d="M0,172v-172h172v172z"
       fill="none"
       id="path815" />
    <g
       fill="#34495e"
       id="g819"
       style="fill:#999999">
      <path
         d="M119.59375,2.6875c-20.425,0 -36.95312,16.52865 -37.625,37.49115c-0.5375,19.48438 18.14167,45.14947 29.2948,58.58697c2.15,2.55313 5.1052,3.8974 8.3302,3.8974c3.225,0 6.1802,-1.47865 8.3302,-3.8974c11.15313,-13.57188 29.96667,-39.1026 29.2948,-58.58697c-0.67187,-20.9625 -17.2,-37.49115 -37.625,-37.49115zM70.85657,10.23822c-0.2782,0.00682 -0.56217,0.04042 -0.84772,0.10761c-24.1875,5.24063 -44.07447,20.96355 -54.55572,43.40417c-8.73437,18.8125 -9.67552,40.0448 -2.55365,59.52917c7.12187,19.48438 21.36562,35.2052 40.3125,43.93958c10.48125,4.8375 21.63438,7.39063 32.92188,7.39063c9.00313,0 18.00678,-1.6125 26.74115,-4.70312c19.61875,-7.12187 35.2052,-21.36562 43.93958,-40.3125c3.7625,-8.0625 6.04845,-16.52917 6.98907,-25.26355c0.26875,-2.15 -1.34532,-4.16405 -3.6297,-4.4328c-2.15,-0.26875 -4.16405,1.3427 -4.4328,3.62707c-0.80625,7.79375 -2.82135,15.45365 -6.18073,22.7099c-7.92812,16.93125 -21.90417,29.6974 -39.37292,36.1474c-17.46875,6.31563 -36.54895,5.5078 -53.34583,-2.28595c-2.55312,-1.20937 -4.97188,-2.55312 -7.39062,-4.03125c2.28438,-0.13438 4.7026,-0.80625 6.8526,-2.01562c2.41875,-1.34375 4.9703,-2.95573 7.79218,-4.83698c1.88125,-1.34375 3.49375,-3.08905 4.70313,-5.10468c1.34375,-2.41875 2.9573,-4.9724 3.76355,-7.92865c5.24062,-20.15625 -12.22812,-20.96303 -12.76562,-25.3974c-0.5375,-4.97187 5.91355,-8.7349 9.81042,-12.63178c3.89687,-3.89687 5.10468,-9.94375 3.08905,-13.4375c-6.45,-11.55625 -21.76718,-5.5099 -23.2453,6.8526c-0.80625,7.39063 -5.2422,14.91562 -9.0047,18.8125c-3.7625,3.7625 -11.15155,1.74845 -13.16718,-3.76093c-2.28437,-6.18125 5.64218,-8.4672 4.4328,-16.39532c-0.26875,-2.15 -2.55313,-3.22395 -5.375,-3.62708l-9.2724,0.2677c0.94063,-6.71875 2.95677,-13.30313 5.91302,-19.48437c9.1375,-20.29062 27.01043,-34.39948 48.77918,-39.1026c2.15,-0.40312 3.62655,-2.5526 3.08905,-4.83697c-0.35273,-1.88125 -2.04187,-3.24705 -3.98926,-3.19928zM119.59375,26.875c7.39063,0 13.4375,6.04688 13.4375,13.4375c0,7.39063 -6.04687,13.4375 -13.4375,13.4375c-7.39062,0 -13.4375,-6.04687 -13.4375,-13.4375c0,-7.39062 6.04688,-13.4375 13.4375,-13.4375z"
         id="path817"
         style="fill:#999999" />
    </g>
    <rect
       style="fill:#e6e6e6;fill-opacity:1;stroke:#ffffff;stroke-width:3.45323968;stroke-opacity:0"
       id="rect831"
       width="16.029694"
       height="200.74512"
       x="117.40142"
       y="-102.79115"
       transform="matrix(0.7263008,0.68737701,-0.71196445,0.70221551,0,0)" />
    <rect
       style="mix-blend-mode:normal;fill:#ffffff;fill-opacity:1;stroke:#ffffff;stroke-width:3.0970788;stroke-opacity:0"
       id="rect848-2"
       width="27.286602"
       height="28.189739"
       x="109.35741"
       y="-41.992062"
       ry="0"
       transform="rotate(59.069139)"
       inkscape:transform-center-x="-14.149137"
       inkscape:transform-center-y="18.363773" />
    <rect
       style="fill:#ffffff;fill-opacity:1;stroke:#ffffff;stroke-width:3.0970788;stroke-opacity:0"
       id="rect848"
       width="27.286602"
       height="28.189739"
       x="74.261971"
       y="86.105789"
       ry="0" />
    <rect
       style="mix-blend-mode:normal;fill:#ffffff;fill-opacity:1;stroke:#ffffff;stroke-width:3.0970788;stroke-opacity:0"
       id="rect848-2-8"
       width="27.286602"
       height="28.189739"
       x="117.5209"
       y="-31.30958"
       ry="0"
       transform="rotate(59.06914)"
       inkscape:transform-center-x="-14.149137"
       inkscape:transform-center-y="18.363773" />
    <rect
       style="mix-blend-mode:normal;fill:#808080;fill-opacity:1;stroke:#ffffff;stroke-width:3.40429688;stroke-opacity:0"
       id="rect831-9"
       width="15.962412"
       height="195.91745"
       x="114.42849"
       y="-102.96385"
       transform="matrix(0.76328527,0.64606161,0.71794884,-0.69609588,0,0)" />
  </g>
</svg>
